# xmcd
#
# Track frame offsets:
#	150
#	10432
#	23885
#	35971
#	49172
#
# Disc length: 792 seconds
# Revision: 0
# Processed by: cddbd v1.5.2PL0 Copyright (c) Steve Scherf et al.
# Submitted via: dBpowerAMP V12.0
#
DISCID=3f031605
DTITLE=Macey Mac - Red Hot
DYEAR=2015
DGENRE=Country
TTITLE0=I'm Gettin' Better
TTITLE1=We Have Strength
TTITLE2=Give My Love Back
TTITLE3=His Voice
TTITLE4=We R the Macey Mac
EXTD=
EXTT0=
EXTT1=
EXTT2=
EXTT3=
EXTT4=
PLAYORDER=
